<svg width="29" height="35" viewBox="0 0 29 35" fill="none" xmlns="http://www.w3.org/2000/svg">
<path d="M9.15155 24.8011L3.34597 27.9233C3.00529 28.1064 0.312226 29.1994 0.0273438 29.4449C5.41456 33.5015 10.1692 34.4053 14.9432 34.4053C19.6819 34.4053 24.8953 31.8253 28.2706 29.0499C27.9593 28.7907 26.7489 28.1484 26.3744 27.9645L20.1577 24.9003C19.3544 24.5043 18.8471 23.695 18.8471 22.8096V20.4048C19.0218 20.2086 19.2215 19.9567 19.4352 19.6592C20.2825 18.4792 20.9235 17.1813 21.3677 15.8196C22.1651 15.5771 22.7525 14.851 22.7525 13.9881V11.4212C22.7525 10.8565 22.4977 10.352 22.1019 9.99872V6.288C22.1019 6.288 22.8751 0.513428 14.9432 0.513428C7.01126 0.513428 7.78441 6.288 7.78441 6.288V9.99872C7.38792 10.352 7.13388 10.8565 7.13388 11.4212V13.9881C7.13388 14.6643 7.49439 15.2593 8.03405 15.6032C8.68458 18.3953 10.388 20.4048 10.388 20.4048V22.7503C10.3873 23.6045 9.91295 24.3913 9.15155 24.8011Z" fill="#DEE2E7"/>
</svg>
